{"title":"Quarantine.2.The.Terminal.2011.VODRiP.XviD-SiC","uid":6494146,"size":751044056,"categoryP":"video","categoryS":"movies","magnet":"?xt=urn:btih:8459a0fea342e6ca6e5eb28f264736a0ec4f0623&amp;dn=Quarantine.2.The.Terminal.2011.VODRiP.XviD-SiC&amp;tr=udp%3A%2F%2Ftracker.openbittorrent.com%3A80&amp;tr=udp%3A%2F%2Fopen.demonii.com%3A1337&amp;tr=udp%3A%2F%2Ftracker.coppersurfer.tk%3A6969&amp;tr=udp%3A%2F%2Fexodus.desync.com%3A6969","seeders":0,"leechers":1,"uploader":"HeroMaster","files":-1,"time":1309001311,"description":"Quarantine.2.The.Terminal.2011.VODRiP.XviD-SiC\n\n &lt;a href=&quot;\nhttp://www.imdb.com/title/tt1699231/&quot; rel=&quot;nofollow&quot; target=&quot;_NEW&quot;&gt;\nhttp://www.imdb.com/title/tt1699231/&lt;/a&gt;\n\n\nPLOT\nA plane is taken over by a mysterious virus. When the plane lands it is\nplaced under quarantine. Now a group of survivors must band together to\nsurvive the quarantine.\n\n\nGeneral\nComplete name : Quarantine.2.The.Terminal.2011.VODRiP.XviD-SiC.avi\nFormat : AVI\nFormat/Info : Audio Video Interleave\nFile size : 708 MiB\nDuration : 1h 26mn\nOverall bit rate : 1 149 Kbps\nWriting application : Lavf52.22.1\nWriting library : VirtualDub build 32842/release\n\nVideo\nID : 0\nFormat : MPEG-4 Visual\nFormat profile : Simple@L1\nFormat settings, BVOP : No\nFormat settings, QPel : No\nFormat settings, GMC : No warppoints\nFormat settings, Matrix : Default (H.263)\nCodec ID : XVID\nCodec ID/Hint : XviD\nDuration : 1h 26mn\nBit rate : 1 008 Kbps\nWidth : 850 pixels\nHeight : 474 pixels\nDisplay aspect ratio : 16:9\nFrame rate : 25.000 fps\nColor space : YUV\nChroma subsampling : 4:2:0\nBit depth : 8 bits\nScan type : Progressive\nCompression mode : Lossy\nBits/(Pixel*Frame) : 0.100\nStream size : 621 MiB (88%)\nWriting library : Lavc52.0.0\n\nAudio\nID : 1\nFormat : MPEG Audio\nFormat version : Version 1\nFormat profile : Layer 3\nCodec ID : 55\nCodec ID/Hint : MP3\nDuration : 1h 26mn\nBit rate mode : Constant\nBit rate : 128 Kbps\nChannel(s) : 2 channels\nSampling rate : 44.1 KHz\nCompression mode : Lossy\nStream size : 78.9 MiB (11%)\nAlignment : Aligned on interleaves\nInterleave, duration : 26 ms (0.65 video frame)\nInterleave, preload duration : 522 ms\n\n\nScreens:\n\n &lt;a href=&quot;\nhttp://leetleech.org/images/22254827533932530714.png&quot; rel=&quot;nofollow&quot; target=&quot;_NEW&quot;&gt;\nhttp://leetleech.org/images/22254827533932530714.png&lt;/a&gt;\n &lt;a href=&quot;\nhttp://leetleech.org/images/45289780151917741526.png&quot; rel=&quot;nofollow&quot; target=&quot;_NEW&quot;&gt;\nhttp://leetleech.org/images/45289780151917741526.png&lt;/a&gt;\n &lt;a href=&quot;\nhttp://leetleech.org/images/26146592130307066692.png&quot; rel=&quot;nofollow&quot; target=&quot;_NEW&quot;&gt;\nhttp://leetleech.org/images/26146592130307066692.png&lt;/a&gt;\n\n\nENJOY!","torrent":{"xt":"urn:btih:8459a0fea342e6ca6e5eb28f264736a0ec4f0623","amp;dn":"Quarantine.2.The.Terminal.2011.VODRiP.XviD-SiC","amp;tr":["udp%3A%2F%2Ftracker.openbittorrent.com%3A80","udp%3A%2F%2Fopen.demonii.com%3A1337","udp%3A%2F%2Ftracker.coppersurfer.tk%3A6969","udp%3A%2F%2Fexodus.desync.com%3A6969"],"infoHash":"8459a0fea342e6ca6e5eb28f264736a0ec4f0623","infoHashBuffer":{"type":"Buffer","data":[132,89,160,254,163,66,230,202,110,94,178,143,38,71,54,160,236,79,6,35]},"announce":[],"urlList":[]}}